<?xml version="1.0" encoding="UTF-8" standalone="no"?>
<!-- Created with Inkscape (http://www.inkscape.org/) -->

<svg
   version="1.1"
   id="svg99"
   width="1024"
   height="1024"
   viewBox="0 0 1024 1024"
   sodipodi:docname="heads.svg"
   inkscape:version="1.1.2 (0a00cf5339, 2022-02-04)"
   xmlns:inkscape="http://www.inkscape.org/namespaces/inkscape"
   xmlns:sodipodi="http://sodipodi.sourceforge.net/DTD/sodipodi-0.dtd"
   xmlns="http://www.w3.org/2000/svg"
   xmlns:svg="http://www.w3.org/2000/svg">
  <sodipodi:namedview
     id="namedview208"
     pagecolor="#ffffff"
     bordercolor="#666666"
     borderopacity="1.0"
     inkscape:pageshadow="2"
     inkscape:pageopacity="0.0"
     inkscape:pagecheckerboard="0"
     showgrid="false"
     inkscape:zoom="0.76367188"
     inkscape:cx="512"
     inkscape:cy="511.34527"
     inkscape:window-width="1920"
     inkscape:window-height="1016"
     inkscape:window-x="0"
     inkscape:window-y="0"
     inkscape:window-maximized="1"
     inkscape:current-layer="svg99" />
  <defs
     id="defs103" />
  <g
     id="g105"
     transform="translate(-27.35863,50.564276)">
    <path
       style="fill:#000000"
       d="m 522.82527,759.06057 c -93.31902,-5.5637 -177.68384,-54.28485 -230.18903,-132.93542 -24.07003,-36.05591 -39.57764,-77.2448 -46.4977,-123.5 -2.8063,-18.75798 -2.55569,-66.00289 0.45089,-85 10.37623,-65.56238 36.55376,-118.7048 81.12395,-164.68794 46.71648,-48.19749 103.52937,-77.32231 170.55047,-87.4318 14.07436,-2.12298 53.2882,-2.94074 69.2442,-1.444 67.76524,6.35663 127.91704,35.01315 177.6704,84.64277 34.52057,34.43471 58.41388,72.23629 73.09069,115.63673 21.54325,63.70501 21.69628,129.41055 0.45018,193.28424 -20.69097,62.20473 -63.40396,117.62679 -119.14473,154.59573 -51.04762,33.85631 -114.12854,50.57315 -176.74932,46.83969 z m 47.4015,-21.97086 c 27.44944,-2.60297 62.44253,-12.76571 89.23266,-25.91506 79.94029,-39.23694 137.87484,-118.36864 151.42923,-206.83428 3.69057,-24.08727 3.66319,-66.99635 -0.055,-86.17647 -0.4839,-2.49631 -1.63915,-8.58875 -2.5672,-13.53875 -7.65961,-40.85462 -29.76495,-86.65307 -58.1496,-120.47599 -36.80095,-43.85173 -82.68381,-74.14711 -135.39468,-89.39795 -30.88046,-8.93465 -49.70975,-11.26134 -83.39691,-10.30516 -38.68609,1.09808 -66.92952,7.29944 -101,22.17641 -53.05934,23.1685 -96.7906,61.30289 -126.24888,110.09115 -19.86612,32.90189 -32.53857,69.65532 -38.41432,111.41154 -1.95538,13.89599 -1.65017,55.06093 0.52642,71 13.52542,99.0459 79.19549,182.90005 172.13678,219.80154 24.1817,9.60113 54.07811,16.7413 77.5,18.50935 10.7848,0.81412 44.42234,0.59998 54.4015,-0.34633 z m -44.4015,-15.04284 C 489.38237,720.63902 450.24549,709.54813 416.4985,691.06508 343.27426,650.96053 294.32944,581.21026 282.16218,499.62515 c -2.52917,-16.95886 -2.5459,-56.80633 -0.0316,-75.22472 11.60654,-85.02267 65.91462,-160.00404 143.69469,-198.39449 20.49224,-10.1145 53.54775,-20.57692 75.5,-23.89656 11.75375,-1.77742 50.67172,-2.40953 65.06006,-1.05673 34.82266,3.27406 77.40869,17.78359 106.08768,36.14524 66.72741,42.72207 108.52365,104.38216 122.45583,180.65352 2.71642,14.87101 3.74632,52.14604 1.93422,70.0053 -4.7669,46.98045 -20.96953,89.38146 -49.20607,128.76844 -12.40392,17.30214 -38.19423,43.35734 -56.01068,56.58594 -37.49556,27.84022 -84.98741,45.73498 -128.57727,48.44745 -15.80326,0.98339 -20.55725,1.03296 -37.24377,0.38833 z m 48.75777,-11.98098 c 49.79301,-6.95532 90.21733,-25.97253 130.46577,-61.37631 36.50222,-32.10849 67.44823,-85.31244 77.16454,-132.66523 14.10097,-68.72159 1.62255,-136.7366 -35.2069,-191.8992 -15.39843,-23.06355 -26.72257,-36.18128 -45.12985,-52.27783 -34.79177,-30.42424 -77.25812,-50.79369 -122.70965,-58.85903 -15.51649,-2.75339 -55.89177,-3.33266 -72.34168,-1.03789 -43.71238,6.09789 -84.25825,23.09217 -120.46034,50.48941 -19.35308,14.64614 -45.33067,43.67898 -59.44585,66.43733 -38.31423,61.77526 -47.53563,142.34726 -24.34251,212.69269 5.56662,16.88372 18.59088,43.28367 29.42627,59.64657 40.06688,60.50634 111.07031,103.1341 182.82243,109.75963 18.36175,1.69551 43.88709,1.30674 59.75777,-0.91014 z m -8.75776,-58.11573 c -4.125,-1.6893 -14.7,-5.05504 -23.5,-7.47941 -8.8,-2.42437 -24.4761,-7.09787 -34.83577,-10.38556 -21.759,-6.90532 -39.89307,-11.60441 -61.72066,-15.9937 -8.49397,-1.70805 -15.79705,-3.4502 -16.22908,-3.87144 -0.43202,-0.42125 0.61065,-4.55242 2.31706,-9.1804 7.6836,-20.83883 13.85418,-50.6625 14.68134,-70.95788 0.89675,-22.00296 -2.40612,-34.256 -14.91392,-55.3278 -20.36634,-34.31104 -25.79898,-50.54343 -25.79898,-77.0858 0,-34.95844 12.29616,-65.15397 37.64151,-92.43579 22.23428,-23.93306 48.89083,-35.8978 87.03726,-39.0665 57.30641,-4.76027 108.48795,25.92022 130.05256,77.95927 7.10225,17.13894 8.78255,31.21719 5.66933,47.5 -0.84127,4.4 -1.77765,11.15192 -2.08085,15.00427 -0.53633,6.81436 -0.43048,7.23462 3.90388,15.5 4.38936,8.37024 14.8348,24.71769 22.04156,34.49573 5.33968,7.2448 5.21784,11.93574 -0.47029,18.10663 -4.54736,4.9333 -8.74617,7.44556 -15.79495,9.45053 -6.20789,1.76579 -6.17783,1.69765 -3.93239,8.91224 1.15507,3.71125 1.7493,7.58772 1.40408,9.15951 -0.35997,1.63891 0.0394,3.95866 1.00183,5.81989 1.43254,2.77023 1.45049,3.81894 0.17116,10.00014 -0.78607,3.79795 -2.0722,7.82335 -2.85807,8.94533 -1.97746,2.82322 -8.77086,8.10573 -10.42411,8.10573 -1.7583,0 -1.71645,0.91038 0.25872,5.62788 1.19751,2.86014 1.47476,5.62793 1.06084,10.59036 -1.76647,21.1781 -15.5967,27.57312 -49.41896,22.85105 -21.26889,-2.96944 -23.60691,-1.68716 -29.95852,16.43071 l -2.80458,8 0.15715,26.25 0.15714,26.25 -2.65714,-0.0518 c -1.46143,-0.0284 -6.03215,-1.43388 -10.15715,-3.12319 z"
       id="path351" />
  </g>
</svg>
