<?xml version="1.0" encoding="UTF-8" standalone="no"?>
<!-- Created with Inkscape (http://www.inkscape.org/) -->

<svg
   version="1.1"
   id="svg1036"
   width="1024"
   height="1024"
   viewBox="0 0 1024 1024"
   sodipodi:docname="tails.svg"
   inkscape:version="1.1.2 (0a00cf5339, 2022-02-04)"
   xmlns:inkscape="http://www.inkscape.org/namespaces/inkscape"
   xmlns:sodipodi="http://sodipodi.sourceforge.net/DTD/sodipodi-0.dtd"
   xmlns="http://www.w3.org/2000/svg"
   xmlns:svg="http://www.w3.org/2000/svg">
  <sodipodi:namedview
     id="namedview6"
     pagecolor="#ffffff"
     bordercolor="#666666"
     borderopacity="1.0"
     inkscape:pageshadow="2"
     inkscape:pageopacity="0.0"
     inkscape:pagecheckerboard="0"
     showgrid="false"
     inkscape:zoom="0.71357706"
     inkscape:cx="504.50052"
     inkscape:cy="520.61651"
     inkscape:window-width="1920"
     inkscape:window-height="1016"
     inkscape:window-x="0"
     inkscape:window-y="0"
     inkscape:window-maximized="1"
     inkscape:current-layer="g1042" />
  <defs
     id="defs1040" />
  <g
     id="g1042">
    <path
       style="fill:#000000"
       d="m 482.14999,808.36212 c -26.74004,-2.55475 -52.79978,-8.6853 -76.56656,-18.01228 -19.07331,-7.48508 -36.16054,-16.31608 -57.65653,-29.79796 -20.73206,-13.00277 -48.77612,-38.9966 -68.42836,-63.42575 -26.63037,-33.10346 -47.84203,-78.07056 -56.32461,-119.40388 -5.07755,-24.74153 -6.06766,-35.37492 -6.08418,-65.3417 -0.0151,-27.46299 0.22616,-30.6808 4.08678,-54.5 1.89676,-11.70265 8.04314,-35.02233 12.86832,-48.82312 8.28809,-23.70523 24.92699,-54.54989 41.09298,-76.17688 10.30768,-13.78969 34.87423,-40.11371 44.55402,-47.74138 2.96036,-2.33276 8.53247,-6.74327 12.38247,-9.80115 39.70212,-31.53352 92.07674,-52.83543 146.5,-59.58476 18.62705,-2.31004 60.22533,-1.41963 77.5,1.65888 1.65,0.29405 5.7,1.00081 9,1.57058 19.41557,3.35224 49.31168,12.51457 66,20.22717 32.14242,14.85479 54.75714,29.82184 79.42031,52.56259 39.10953,36.06105 67.14716,79.88672 82.56272,129.05395 6.7234,21.44399 8.27564,29.02154 12.57163,61.37083 1.39012,10.46783 1.7346,41.29273 0.6111,54.68329 -4.72982,56.3729 -25.37332,110.9725 -58.60377,155 -15.85687,21.00901 -35.96091,41.31969 -58.06199,58.65879 -19.31128,15.15041 -48.11364,31.18367 -72,40.07987 -24.5997,9.16188 -33.31257,11.42969 -61,15.87722 -19.85161,3.18884 -52.11086,3.99752 -74.42433,1.86569 z m 60.42433,-20.51297 c 26.71335,-2.35611 62.80526,-12.81663 89.5,-25.93979 23.10717,-11.3595 36.68907,-20.32284 57,-37.61701 33.56441,-28.57911 59.0213,-63.43726 76.25189,-104.4118 5.78587,-13.75887 12.98129,-36.44286 14.90852,-47 0.25101,-1.375 0.90816,-4.525 1.46033,-7 0.55218,-2.475 1.23766,-6.3 1.52329,-8.5 0.28563,-2.2 0.94497,-6.925 1.46519,-10.5 1.64349,-11.29404 2.2028,-43.71372 1.01115,-58.60994 -5.99682,-74.96294 -41.32259,-142.30992 -100.12037,-190.87497 -31.44556,-25.97301 -64.44712,-42.63512 -108,-54.52798 -8.6486,-2.36165 -22.69442,-5.09136 -33.05316,-6.42365 -18.37908,-2.36383 -57.98919,-1.33658 -77.44065,2.00835 -53.76364,9.24534 -106.93405,35.82341 -144.89528,72.42819 -53.16585,51.2661 -83.28268,119.50135 -85.02542,192.6408 -0.46912,19.68794 0.558,41.30619 2.51142,52.8592 0.55797,3.3 1.24737,7.35 1.53199,9 2.52511,14.63862 11.13314,42.63551 17.6192,57.30501 26.72304,60.43939 70.72972,107.21338 129.2519,137.37977 26.39939,13.60808 63.6448,24.71264 93,27.72755 11.66861,1.19842 48.17171,1.23182 61.5,0.0563 z m -57,-15.93359 c -47.95897,-4.72935 -97.48734,-25.0989 -135,-55.52148 -30.641,-24.8497 -51.3483,-49.99757 -68.9197,-83.69915 -24.31786,-46.64115 -33.58373,-98.90286 -26.97888,-152.1674 10.89349,-87.85022 62.71233,-161.98973 140.89858,-201.58984 31.82646,-16.1196 65.56941,-25.28593 99.95092,-27.15184 35.5546,-1.92958 58.44347,0.72598 92.26092,10.70406 67.11708,19.80338 125.92837,70.94096 158.00748,137.39064 11.18317,23.16517 21.37537,59.00744 23.76328,83.5668 2.99915,30.84599 -0.44887,72.90838 -8.10995,98.9332 -10.55733,35.86345 -26.50153,66.93033 -48.49945,94.5 -10.48624,13.14225 -33.57685,35.58479 -46.91468,45.59794 -33.06237,24.82104 -71.51481,41.07158 -112.27868,47.45053 -14.40638,2.25439 -53.81861,3.40274 -68.17984,1.98654 z m 52,-10.05628 c 55.02503,-5.71457 101.41504,-26.9436 143.68409,-65.75285 21.31754,-19.57265 38.4483,-42.87251 52.73504,-71.72588 10.31014,-20.82229 15.1936,-33.73415 19.64506,-51.94162 5.27255,-21.5659 6.40491,-32.41928 6.37039,-61.05838 -0.0327,-27.10223 -1.17679,-37.79743 -6.34969,-59.35643 -10.87085,-45.30628 -36.20143,-89.04068 -70.78638,-122.21591 -19.82791,-19.0197 -49.62402,-38.99085 -71.79851,-48.1237 -2.2,-0.9061 -5.8,-2.39313 -8,-3.30451 -17.39338,-7.20543 -42.66463,-13.71841 -62.00965,-15.98132 -47.15846,-5.51642 -94.70836,2.80919 -138.33453,24.22127 -25.38056,12.45699 -45.27984,26.61417 -65.59261,46.66533 -41.38454,40.85153 -65.37685,90.58997 -73.12495,151.59527 -3.51823,27.70099 -0.20986,67.94051 7.98965,97.17781 5.24457,18.70078 12.03129,34.65353 23.41654,55.04254 35.17594,62.99401 98.614,107.98843 172.33796,122.23336 16.63165,3.21356 51.16266,4.46241 69.81759,2.52502 z M 508.02887,661.426 505.57432,658.97146 V 618.6681 578.36475 l -7.51412,-6.83244 c -11.62797,-10.5731 -17.98698,-21.18492 -21.03484,-35.10261 -1.4055,-6.41803 -1.61865,-10.56293 -1.10563,-21.5 0.70173,-14.96005 1.00392,-17.22749 3.66429,-27.49406 2.47217,-9.5403 5.50477,-16.02801 8.64769,-18.50023 4.59467,-3.61417 10.10858,-2.34189 12.85328,2.96578 1.44534,2.79498 1.33808,3.53909 -1.90924,13.24497 -2.72011,8.13011 -3.69757,13.21643 -4.66762,24.28857 -1.45487,16.60576 -0.9573,20.86658 3.5303,30.23062 4.96777,10.366 20.37628,25.90469 30.04815,30.30202 13.76004,6.25602 27.22116,9.91318 36.48802,9.91318 8.92848,0 12.93611,2.78822 12.93611,9 0,8.62644 -6.88045,10.6398 -25.43639,7.4432 -4.95,-0.85273 -13.3875,-3.041 -18.75,-4.86283 l -9.75,-3.31242 v 32.89815 c 0,35.28887 -0.31697,37.84122 -5.11687,41.20321 -3.38181,2.3687 -7.56662,2.03811 -10.42858,-0.82386 z m -103.70342,-2.52657 c -1.38523,-1.08962 -2.7348,-3.22712 -2.99906,-4.75 -0.81161,-4.67715 -11.23939,-58.52551 -12.25207,-63.26888 -0.29356,-1.375 -0.74356,-3.625 -1,-5 -0.25644,-1.375 -0.74409,-3.85 -1.08366,-5.5 -0.33956,-1.65 -2.32862,-4.8 -4.42012,-7 -4.40185,-4.63018 -10.93806,-14.57024 -14.41831,-21.9269 -6.65078,-14.0586 -8.43403,-34.33204 -4.64123,-52.76535 2.19464,-10.66613 4.44261,-16.82735 10.32832,-28.30775 7.62352,-14.87011 15.37848,-25.67628 28.91803,-40.29594 11.8732,-12.82037 12.13305,-13.61028 12.8968,-39.20406 0.35287,-11.825 0.98379,-22.30414 1.40206,-23.28699 1.10908,-2.60615 6.05838,-4.8665 9.0253,-4.12185 1.38844,0.34848 3.4428,1.80109 4.56523,3.22803 1.93147,2.45547 2.03072,3.80437 1.8529,25.18211 -0.26792,32.20866 0.1782,31.05223 -20.94686,54.29867 -14.31352,15.75089 -25.05548,33.62534 -30.46904,50.70003 -6.86994,21.66821 -1.71837,47.79451 12.48357,63.3106 12.33914,13.48093 30.38158,22.51915 52.18565,26.14203 8.03135,1.33445 11.00616,7.79743 6.21169,13.49533 l -2.78685,3.31199 -7.38791,-0.6245 c -7.86401,-0.66476 -21.87542,-4.90918 -30.3021,-9.1793 -2.81178,-1.42484 -5.33659,-2.36636 -5.61069,-2.09227 -0.27409,0.27409 0.42487,4.69185 1.55324,9.81723 1.77397,8.05788 2.94738,13.92995 5.65896,28.31889 5.04785,26.7864 5.03959,28.57826 -0.14088,30.54787 -3.73333,1.41941 -5.82813,1.16943 -8.62297,-1.02899 z m 225.01158,-0.5842 c -3.80048,-2.06212 -4.22627,-4.95399 -2.38366,-16.18939 6.66776,-40.65696 10.81766,-69.51367 13.11176,-91.174 1.36043,-12.8448 1.6968,-41.30779 0.56275,-47.61892 -4.24494,-23.6236 -11.25312,-36.98016 -35.12989,-66.95237 -6.05483,-7.60055 -8.43541,-11.50655 -9.92133,-16.27874 -2.32554,-7.46868 -4.34037,-29.60705 -3.85146,-42.31869 0.32708,-8.50407 0.52624,-9.22938 3.15488,-11.48982 3.34429,-2.87584 7.61814,-3.10471 10.74189,-0.57525 2.86615,2.32086 3.76959,8.24365 3.91448,25.6625 0.1832,22.02562 2.04185,26.96206 16.56668,44 14.2432,16.70757 23.99908,35.23838 28.42928,54 3.67444,15.56101 4.39213,29.84878 2.63713,52.5 -1.31845,17.01679 -5.49282,50.53198 -8.09586,65 -1.06098,5.89709 -6.32911,38.22099 -7.00811,43 -0.72338,5.09135 -4.64955,10.0236 -7.92834,9.95996 -1.1346,-0.022 -3.29469,-0.70839 -4.8002,-1.52528 z"
       id="path1064" />
  </g>
</svg>
